# xmcd CD database file
#
# Track frame offsets:
#	150
#	21946
#	48570
#	68336
#	95277
#	115910
#	133001
#	155738
#	180047
#	207168
#	234440
#	257498
#
# Disc length: 3971 seconds
#
# Revision: 0
# Processed by: cddbd v1.5.1PL2 Copyright (c) Steve Scherf et al.
# Submitted via: CDex 1.51
#
DISCID=940f810c
DTITLE=ZINA - ZINA
DYEAR=2002
DGENRE=Jazz
TTITLE0=Taila
TTITLE1=Fela
TTITLE2=Venez Voitre
TTITLE3=Sudan I
TTITLE4=Duda
TTITLE5=Hamuda
TTITLE6=Mimuna
TTITLE7=Per Esma
TTITLE8=Lecce Algeri
TTITLE9=Rimitti
TTITLE10=Zina La Mama
TTITLE11=Dawini
EXTD=YEAR: 2002
EXTT0=
EXTT1=
EXTT2=
EXTT3=
EXTT4=
EXTT5=
EXTT6=
EXTT7=
EXTT8=
EXTT9=
EXTT10=
EXTT11=
PLAYORDER=
